Coordinates
version=1
nRows=19
nColumns=36
inDegrees=yes

Units are S.I. units (second, meters, Newtons, ...)
If the header above contains a line with 'inDegrees', this indicates whether rotational values are in degrees (yes) or radians (no).

endheader
time	pelvis_tilt	pelvis_list	pelvis_rotation	pelvis_tx	pelvis_ty	pelvis_tz	hip_flexion_r	hip_adduction_r	hip_rotation_r	knee_angle_r	knee_angle_r_beta	ankle_angle_r	subtalar_angle_r	mtp_angle_r	hip_flexion_l	hip_adduction_l	hip_rotation_l	knee_angle_l	knee_angle_l_beta	ankle_angle_l	subtalar_angle_l	mtp_angle_l	lumbar_extension	lumbar_bending	lumbar_rotation	arm_flex_r	arm_add_r	arm_rot_r	elbow_flex_r	pro_sup_r	arm_flex_l	arm_add_l	arm_rot_l	elbow_flex_l	pro_sup_l
      2.00000000	     -2.39375195	     -0.32632189	      0.68531685	      0.38227616	      0.95918221	     -0.04817213	     -1.79766362	     -4.96734391	     -2.54575120	      2.74935050	      0.04798522	      4.99143723	      0.41082321	     -7.49999987	      0.78248027	     -3.95462565	     -0.22903100	      0.78883995	      0.01376785	      2.07079266	     -1.02181106	     -7.49999987	      1.06522960	     -2.35717662	     15.52350026	    -62.36078925	    -68.73483436	   -141.65241009	     39.58500719	     76.04513539	    120.19683504	    -42.43765824	     62.09018274	      5.29973103	     55.79600469
      2.01694910	     -2.36501309	     -0.36176187	      0.67374224	      0.38281215	      0.96000260	     -0.04623268	     -1.90229283	     -4.89515856	     -2.77219195	      2.77026883	      0.04835031	      5.15493811	      0.87852471	     -7.49999987	      0.69836117	     -4.01192456	     -0.23911083	      0.76829004	      0.01340919	      2.04878073	     -0.97091642	     -7.49999987	      0.86177114	     -2.41555013	     16.49117045	    -69.62911502	    -66.94630982	   -145.44106569	     38.94012216	     72.82603458	    121.60495589	    -41.24743897	     62.05975112	      5.18230758	     58.79579914
      2.03389830	     -2.53517197	     -0.28948312	      0.69039803	      0.38631390	      0.95556275	     -0.04977238	     -1.83471553	     -4.97391243	     -2.71637227	      2.79552345	      0.04879109	      5.26731296	      0.83782520	     -7.49999987	      0.80577228	     -3.93575157	     -0.26487403	      0.76678135	      0.01338286	      2.05788240	     -0.88987022	     -7.49999987	      1.41640425	     -2.77412810	     15.97631866	    -70.79884374	    -67.35526657	   -145.99198172	     39.66955122	     72.80015734	    123.90099560	    -40.90921153	     62.08414028	      5.45555385	     58.75675314
      2.05084750	     -2.26775610	     -0.37682346	      0.66761906	      0.38564203	      0.95667425	     -0.04995330	     -2.18746600	     -4.91116575	     -2.80316781	      2.85961685	      0.04990973	      5.34604017	      0.77290836	     -7.49999987	      0.43259177	     -3.99512213	     -0.25690760	      0.74947117	      0.01308074	      2.17891454	     -1.13918947	     -7.49999987	      0.84049001	     -2.43382039	     16.09474523	    -78.17670821	    -66.96319162	   -150.81109670	     38.40844638	     69.76538254	    125.67355556	    -40.93296311	     63.25453342	      5.42197766	     60.10407342
      2.06779660	     -2.29128959	     -0.37319217	      0.69662196	      0.38337033	      0.95898662	     -0.04705161	     -2.24695666	     -4.88589693	     -2.80560463	      2.77147566	      0.04837138	      5.42889318	      0.78785811	     -7.49999987	      0.42409474	     -4.00045530	     -0.32035692	      0.72139381	      0.01259070	      2.30784628	     -0.97731066	     -7.49999987	      0.91341420	     -2.60337106	     15.76282054	    -80.50331821	    -67.13921925	   -151.83953689	     38.94067342	     69.69954442	    127.64423810	    -40.43242696	     64.01822741	      4.95884637	     59.95290201
      2.08474580	     -2.33663073	     -0.34190361	      0.78124207	      0.38553092	      0.96080015	     -0.04949809	     -2.30130349	     -4.93326112	     -2.88374520	      2.71591705	      0.04740169	      5.43502271	      0.97075764	     -7.49999987	      0.45266866	     -3.94795114	     -0.32792473	      0.70294239	      0.01226866	      2.26106768	     -0.97927586	     -7.49999987	      1.02513647	     -2.72449054	     16.05578075	    -83.54651748	    -66.58845392	   -153.78154414	     38.68902144	     68.16659662	    128.90718930	    -39.26346605	     67.90533627	      4.21235067	     55.67479566
      2.10169490	     -2.38050669	     -0.31734835	      0.83422118	      0.38576817	      0.95864484	     -0.04723890	     -2.34051951	     -4.95867432	     -2.83856576	      2.58178231	      0.04506060	      5.41328053	      0.93625527	     -7.49999987	      0.47886752	     -3.91063861	     -0.28693051	      0.68624397	      0.01197722	      2.21379911	     -1.13543840	     -7.49999987	      1.04500709	     -2.73745653	     16.51864466	    -87.10313606	    -65.17307808	   -154.89996516	     39.03208672	     64.80260527	    129.76644422	    -38.48111547	     65.34978262	      4.71975453	     57.95722604
      2.11864410	     -2.38746604	     -0.29952615	      0.86824689	      0.38624168	      0.95657555	     -0.04637690	     -2.43016669	     -4.92560828	     -2.83121742	      2.46803325	      0.04307531	      5.44616574	      1.08463275	     -7.49999987	      0.44371626	     -3.92616690	     -0.44316258	      0.66904963	      0.01167712	      2.33696277	     -0.75239589	     -7.49999987	      1.20495813	     -2.93896459	     16.51078794	    -89.43950626	    -64.86825000	   -155.96152143	     39.46079090	     62.47817938	    131.63772011	    -37.62227891	     67.41727389	      4.40669898	     59.41136877
      2.13559320	     -2.55693988	     -0.22401508	      0.97171210	      0.38883501	      0.95898722	     -0.04810868	     -2.36743757	     -4.98863109	     -2.93775560	      2.35828537	      0.04115984	      5.37198044	      1.13497641	     -7.49999987	      0.59489309	     -3.85669683	     -0.44838167	      0.67707330	      0.01181716	      2.25497993	     -0.64760439	     -7.49999987	      1.50156208	     -3.24647938	     16.49164166	    -90.64143157	    -64.40753927	   -156.63118224	     40.15092057	     62.45265964	    133.24868328	    -36.76720541	     67.39269620	      4.43539548	     59.27832143
      2.15254240	     -2.37573215	     -0.23233050	      0.96169765	      0.39040822	      0.96605324	     -0.04995218	     -2.66347483	     -5.00461983	     -3.04583155	      2.25777913	      0.03940568	      5.27356906	      1.43061366	     -7.49999987	      0.31134935	     -3.84755134	     -0.58545245	      0.64431940	      0.01124549	      2.20912187	     -0.36872564	     -7.49999987	      1.38446972	     -3.08036972	     17.08516975	    -94.19756899	    -63.55188164	   -159.24950409	     39.61253409	     60.84728681	    133.72290364	    -35.80088096	     69.68543043	      3.93397854	     55.63112839
      2.16949150	     -2.35635645	     -0.21188834	      0.95900620	      0.38925194	      0.96361388	     -0.04902382	     -2.75372846	     -5.04296622	     -3.05091267	      2.14169586	      0.03737964	      5.17285186	      1.48471006	     -7.49999987	      0.22695068	     -3.78654202	     -0.69516054	      0.61393101	      0.01071512	      2.24465673	     -0.08086002	     -7.49999987	      1.44368199	     -3.13718877	     17.46481816	    -96.41576667	    -63.02622726	   -161.26921780	     39.57786440	     59.29014579	    134.53143745	    -34.78706908	     68.35637832	      3.98791267	     57.12154328
      2.18644070	     -2.36206076	     -0.21187357	      0.99257362	      0.38976280	      0.96089541	     -0.04894147	     -2.83734021	     -5.06131724	     -3.01489463	      2.00617406	      0.03501434	      4.99419955	      1.48388001	     -7.49999987	      0.19275468	     -3.74079859	     -0.74307370	      0.59316839	      0.01035274	      2.23422377	      0.01036823	     -7.49999987	      1.47640333	     -3.13077691	     17.75675171	    -98.72118325	    -62.24837033	   -163.39257944	     39.54639445	     57.71258770	    135.40224720	    -33.94007446	     67.34843403	      4.16333838	     58.66608903
      2.20338980	     -2.40323191	     -0.17184243	      1.01500385	      0.38890484	      0.96381921	     -0.05030767	     -2.83417678	     -5.13032695	     -3.15364524	      1.94737320	      0.03398807	      4.96543507	      1.82128616	     -7.49999987	      0.20769855	     -3.66585690	     -0.74186146	      0.56908389	      0.00993239	      2.28985362	      0.28727188	     -7.49999987	      1.56690308	     -3.14714936	     18.06872092	   -100.60967319	    -61.34622125	   -165.13507176	     39.68156352	     57.07814501	    135.90348002	    -32.93520638	     65.16023678	      4.13637449	     58.09128062
      2.22033900	     -2.45987318	     -0.16896374	      1.08021115	      0.38851815	      0.95235196	     -0.04748911	     -2.83885610	     -5.11441136	     -3.00111588	      1.82362807	      0.03182831	      4.95199377	      1.51798670	     -7.49999987	      0.24461557	     -3.62834997	     -0.73110483	      0.56896640	      0.00993034	      2.45439807	      0.30075465	     -7.49999987	      1.60499127	     -3.15134296	     18.06380383	   -103.93272269	    -60.74339207	   -167.91131475	     39.18299389	     56.36406682	    137.10032927	    -31.93762829	     65.45385157	      3.95172367	     57.77421405
      2.23728810	     -2.52978742	     -0.18454827	      1.14390030	      0.39139892	      0.95395328	     -0.04797726	     -2.90519696	     -5.09208044	     -3.02516184	      1.73532883	      0.03028720	      5.06202455	      1.66135356	     -7.49999987	      0.28852327	     -3.64548058	     -0.68634216	      0.56197313	      0.00980828	      2.59068730	      0.30269883	     -7.49999987	      1.79100856	     -3.05313233	     17.08518005	   -108.67922148	    -62.16950112	   -174.24070644	     37.86312485	     53.87650490	    138.90476070	    -32.06995736	     68.58761124	      3.96829644	     56.20754757
      2.25423730	     -2.68668565	     -0.17056058	      1.19049785	      0.39070249	      0.95504976	     -0.04775271	     -2.77251011	     -5.10491914	     -2.95629549	      1.74588394	      0.03047142	      5.16496732	      1.56102180	     -7.49999987	      0.45338823	     -3.64559905	     -0.69103117	      0.57418897	      0.01002149	      2.72750654	      0.27573874	     -7.49999987	      1.81737618	     -3.17569037	     17.12969368	   -110.61322228	    -61.01305747	   -174.90227087	     37.99448183	     53.70689286	    140.35633581	    -31.23224659	     68.62209815	      3.83804447	     56.05707085
      2.27118640	     -2.59973797	     -0.16559031	      1.25153442	      0.39266908	      0.95366946	     -0.04743529	     -3.00355044	     -5.10221285	     -2.86813883	      1.65712507	      0.02892229	      5.24540923	      1.52781669	     -7.49999987	      0.28839956	     -3.66708366	     -0.60082453	      0.55976365	      0.00976972	      2.85957310	      0.26273395	     -7.49999987	      1.95132931	     -3.14630764	     16.11048946	   -116.91351896	    -62.34715813	   -182.04052677	     35.20231161	     50.59271597	    142.04079077	    -31.13320046	     69.48930245	      3.97470502	     56.67839315
      2.28813560	     -2.73203884	     -0.14476710	      1.32791325	      0.39273912	      0.95514370	     -0.04985432	     -2.97062690	     -5.15160543	     -2.89554029	      1.59945957	      0.02791584	      5.27960772	      1.51271049	     -7.49999987	      0.38639531	     -3.65288878	     -0.62163558	      0.52703943	      0.00919857	      2.94520561	      0.24352377	     -7.49999987	      2.27099513	     -3.37505108	     16.21694981	   -117.57527944	    -61.56427580	   -182.23547484	     35.71913345	     50.58750321	    143.03813183	    -29.88051565	     69.50023635	      4.42412096	     56.65476048
      2.30508470	     -2.78932304	     -0.13889649	      1.32147837	      0.39234432	      0.95314721	     -0.04685080	     -2.92520700	     -5.14935834	     -2.73535178	      1.60393084	      0.02799387	      5.35236582	      1.39650672	     -7.49999987	      0.41069000	     -3.65328607	     -0.56540945	      0.55714580	      0.00972403	      3.09560110	      0.11306290	     -7.49999987	      2.30917083	     -3.27638737	     15.74519115	   -122.55776716	    -61.29843968	   -186.48621271	     34.10447116	     47.37030322	    144.67206932	    -29.45313125	     70.20213766	      3.82935353	     54.40740782
